<svg width="189" height="158" viewBox="0 0 189 158" fill="none" xmlns="http://www.w3.org/2000/svg">
<circle cx="60" cy="98" r="59.5" fill="#FF9900" stroke="#FF9900"/>
<path fill-rule="evenodd" clip-rule="evenodd" d="M121 52C112.163 52 105 59.1634 105 68C105 76.8366 112.163 84 121 84C129.837 84 137 76.8366 137 68C137 59.1634 129.837 52 121 52ZM103 68C103 58.0589 111.059 50 121 50C130.941 50 139 58.0589 139 68C139 77.9411 130.941 86 121 86C111.059 86 103 77.9411 103 68Z" fill="black"/>
<path fill-rule="evenodd" clip-rule="evenodd" d="M121 6.66669C118.259 6.66669 115.631 7.75537 113.693 9.69325C111.755 11.6311 110.667 14.2595 110.667 17V17.9634L110.667 17.9673C110.659 19.9858 110.061 21.9579 108.946 23.6408C107.832 25.3237 106.249 26.644 104.394 27.4392C104.269 27.4925 104.135 27.52 104 27.52H103.752C101.912 28.2865 99.8889 28.5061 97.9249 28.15C95.8901 27.781 94.0124 26.811 92.5341 25.3649L92.5262 25.3572L92.1862 25.0171C91.2266 24.0564 90.0865 23.2938 88.8321 22.7738C87.5776 22.2538 86.233 21.9861 84.875 21.9861C83.5171 21.9861 82.1724 22.2538 80.918 22.7738C79.6635 23.2938 78.5239 24.056 77.5642 25.0167L77.5634 25.0175C76.6026 25.9772 75.8405 27.1169 75.3204 28.3713C74.8004 29.6258 74.5328 30.9704 74.5328 32.3284C74.5328 33.6863 74.8004 35.031 75.3204 36.2854C75.8405 37.5398 76.6026 38.6795 77.5634 39.6392L77.9116 39.9874C79.3577 41.4657 80.3277 43.3434 80.6967 45.3783C81.0637 47.4028 80.8191 49.4904 79.9943 51.3749C79.2753 53.3115 77.9931 54.9889 76.3125 56.191C74.6233 57.3991 72.6096 58.0712 70.5334 58.1197L70.51 58.12H70C67.2594 58.12 64.6311 59.2087 62.6933 61.1466C60.7554 63.0845 59.6667 65.7128 59.6667 68.4534C59.6667 71.1939 60.7554 73.8223 62.6933 75.7601C64.6311 77.698 67.2594 78.7867 70 78.7867H70.9673C72.9858 78.7947 74.9579 79.3928 76.6408 80.5073C78.3222 81.6209 79.6417 83.2014 80.4371 85.0546C81.2703 86.9452 81.5186 89.042 81.15 91.0751C80.781 93.1099 79.811 94.9876 78.3649 96.466L78.3572 96.4738L78.0171 96.8138C77.0564 97.7735 76.2938 98.9135 75.7738 100.168C75.2538 101.422 74.9861 102.767 74.9861 104.125C74.9861 105.483 75.2538 106.828 75.7738 108.082C76.2938 109.337 77.056 110.476 78.0167 111.436L78.0175 111.437C78.9772 112.397 80.1169 113.16 81.3713 113.68C82.6258 114.2 83.9704 114.467 85.3284 114.467C86.6863 114.467 88.031 114.2 89.2854 113.68C90.5398 113.16 91.6795 112.397 92.6392 111.437L92.9874 111.088C94.4657 109.642 96.3434 108.672 98.3783 108.303C100.403 107.936 102.49 108.181 104.375 109.006C106.311 109.725 107.989 111.007 109.191 112.688C110.399 114.377 111.071 116.39 111.12 118.467L111.12 118.49V119C111.12 121.741 112.209 124.369 114.147 126.307C116.084 128.245 118.713 129.333 121.453 129.333C124.194 129.333 126.822 128.245 128.76 126.307C130.698 124.369 131.787 121.741 131.787 119V118.037L131.787 118.033C131.795 116.014 132.393 114.042 133.507 112.359C134.621 110.678 136.201 109.359 138.054 108.563C139.945 107.73 142.042 107.481 144.075 107.85C146.11 108.219 147.988 109.189 149.466 110.635L149.474 110.643L149.814 110.983C150.773 111.944 151.914 112.706 153.168 113.226C154.422 113.746 155.767 114.014 157.125 114.014C158.483 114.014 159.828 113.746 161.082 113.226C162.337 112.706 163.476 111.944 164.436 110.983L164.437 110.983C165.397 110.023 166.16 108.883 166.68 107.629C167.2 106.374 167.467 105.03 167.467 103.672C167.467 102.314 167.2 100.969 166.68 99.7146C166.16 98.4602 165.397 97.3205 164.437 96.3608L164.088 96.0127C162.642 94.5343 161.672 92.6566 161.303 90.6218C160.935 88.5885 161.183 86.4915 162.017 84.6007C162.812 82.7478 164.131 81.1674 165.813 80.054C167.495 78.9395 169.468 78.3414 171.486 78.3334L171.49 78.3334L172 78.3334C174.741 78.3334 177.369 77.2447 179.307 75.3068C181.245 73.3689 182.333 70.7406 182.333 68C182.333 65.2595 181.245 62.6311 179.307 60.6933C177.369 58.7554 174.741 57.6667 172 57.6667H171.037L171.033 57.6667C169.014 57.6586 167.042 57.0605 165.359 55.946C163.676 54.8315 162.356 53.2492 161.561 51.394C161.508 51.2695 161.48 51.1355 161.48 51V50.752C160.714 48.9123 160.494 46.8889 160.85 44.9249C161.219 42.8901 162.189 41.0124 163.635 39.5341L163.643 39.5262L163.983 39.1863C164.944 38.2266 165.706 37.0865 166.226 35.8321C166.746 34.5776 167.014 33.233 167.014 31.875C167.014 30.5171 166.746 29.1724 166.226 27.918C165.706 26.6635 164.944 25.5239 163.983 24.5642L163.983 24.5634C163.023 23.6026 161.883 22.8405 160.629 22.3205C159.374 21.8004 158.03 21.5328 156.672 21.5328C155.314 21.5328 153.969 21.8004 152.715 22.3205C151.46 22.8405 150.321 23.6026 149.361 24.5634L149.013 24.9116C147.534 26.3577 145.657 27.3277 143.622 27.6967C141.589 28.0653 139.492 27.817 137.601 26.9837C135.748 26.1884 134.168 24.8689 133.054 23.1875C131.939 21.5046 131.341 19.5325 131.333 17.514L131.333 17.51V17C131.333 14.2595 130.245 11.6311 128.307 9.69325C126.369 7.75537 123.741 6.66669 121 6.66669ZM112.279 8.27904C114.592 5.96609 117.729 4.66669 121 4.66669C124.271 4.66669 127.408 5.96609 129.721 8.27904C132.034 10.592 133.333 13.729 133.333 17L133.333 17.506C133.333 17.5067 133.333 17.5073 133.333 17.5079C133.34 19.1357 133.823 20.726 134.722 22.0832C135.621 23.4409 136.897 24.5061 138.394 25.1475L138.404 25.1518C139.93 25.8254 141.623 26.0264 143.265 25.7288C144.905 25.4314 146.418 24.6501 147.61 23.4855C147.612 23.4843 147.613 23.483 147.614 23.4818L147.946 23.15C147.946 23.1498 147.946 23.1501 147.946 23.15C149.091 22.0034 150.452 21.0935 151.949 20.4729C153.446 19.8522 155.051 19.5328 156.672 19.5328C158.292 19.5328 159.897 19.8522 161.395 20.4729C162.892 21.0934 164.251 22.0028 165.397 23.1492C166.543 24.2946 167.453 25.6548 168.074 27.1521C168.694 28.6493 169.014 30.2542 169.014 31.875C169.014 33.4958 168.694 35.1007 168.074 36.598C167.453 38.0952 166.543 39.4554 165.397 40.6009L165.065 40.9326C165.064 40.9339 165.062 40.9352 165.061 40.9365C163.897 42.1286 163.115 43.6419 162.818 45.2818C162.52 46.9234 162.721 48.6166 163.395 50.1429C163.451 50.2701 163.48 50.4076 163.48 50.5467V50.7887C164.128 52.2067 165.161 53.4162 166.464 54.2785C167.821 55.1773 169.411 55.6598 171.039 55.6667H172C175.271 55.6667 178.408 56.9661 180.721 59.279C183.034 61.592 184.333 64.729 184.333 68C184.333 71.271 183.034 74.4081 180.721 76.721C178.408 79.034 175.271 80.3334 172 80.3334L171.494 80.3334C171.493 80.3334 171.493 80.3334 171.492 80.3334C169.864 80.3402 168.274 80.8227 166.917 81.7215C165.559 82.6207 164.494 83.8972 163.852 85.394L163.848 85.4038C163.175 86.9302 162.974 88.6233 163.271 90.2649C163.569 91.9047 164.35 93.418 165.514 94.61C165.516 94.6114 165.517 94.6127 165.518 94.6141L165.85 94.9459C165.85 94.946 165.85 94.9457 165.85 94.9459C166.997 96.0912 167.907 97.4517 168.527 98.9488C169.148 100.446 169.467 102.051 169.467 103.672C169.467 105.292 169.148 106.897 168.527 108.395C167.907 109.892 166.997 111.252 165.85 112.397C164.705 113.544 163.345 114.453 161.848 115.074C160.351 115.694 158.746 116.014 157.125 116.014C155.504 116.014 153.899 115.694 152.402 115.074C150.905 114.453 149.545 113.544 148.4 112.397C148.399 112.397 148.4 112.397 148.4 112.397L148.067 112.065C148.066 112.064 148.065 112.062 148.063 112.061C146.871 110.896 145.358 110.115 143.718 109.818C142.077 109.52 140.383 109.721 138.857 110.395L138.847 110.399C137.351 111.041 136.074 112.106 135.175 113.464C134.276 114.821 133.794 116.411 133.787 118.039C133.787 118.039 133.787 118.04 133.787 118.041L133.787 119C133.787 122.271 132.487 125.408 130.174 127.721C127.861 130.034 124.724 131.333 121.453 131.333C118.182 131.333 115.045 130.034 112.732 127.721C110.419 125.408 109.12 122.271 109.12 119V118.502C109.079 116.831 108.537 115.211 107.564 113.851C106.589 112.488 105.227 111.45 103.655 110.872C103.644 110.868 103.634 110.864 103.623 110.86C103.614 110.856 103.605 110.852 103.596 110.848C102.07 110.175 100.377 109.974 98.7351 110.271C97.0953 110.569 95.5819 111.35 94.3899 112.514C94.3885 112.516 94.3872 112.517 94.3859 112.518L94.0542 112.85C92.9087 113.997 91.5485 114.906 90.0513 115.527C88.554 116.148 86.9491 116.467 85.3284 116.467C83.7076 116.467 82.1027 116.148 80.6054 115.527C79.1082 114.906 77.748 113.997 76.6025 112.85C75.4562 111.705 74.5468 110.345 73.9262 108.848C73.3056 107.351 72.9861 105.746 72.9861 104.125C72.9861 102.504 73.3056 100.899 73.9262 99.4021C74.5468 97.905 75.4564 96.5449 76.6029 95.3996C76.603 95.3995 76.6028 95.3997 76.6029 95.3996L76.9352 95.0674C76.9364 95.0662 76.9376 95.0649 76.9389 95.0636C78.1035 93.8715 78.8847 92.3582 79.1821 90.7183C79.4797 89.0766 79.2788 87.3835 78.6052 85.8571L78.6008 85.8473C77.9593 84.3505 76.8942 83.074 75.5365 82.1748C74.1793 81.276 72.589 80.7935 70.9612 80.7867C70.9606 80.7867 70.96 80.7867 70.9594 80.7867L70 80.7867C66.729 80.7867 63.592 79.4873 61.279 77.1743C58.9661 74.8614 57.6667 71.7244 57.6667 68.4534C57.6667 65.1824 58.9661 62.0453 61.279 59.7324C63.592 57.4194 66.729 56.12 70 56.12H70.498C72.169 56.0787 73.7893 55.5367 75.149 54.5642C76.5118 53.5895 77.5498 52.2274 78.1282 50.6548C78.1354 50.6351 78.1433 50.6155 78.1518 50.5963C78.8255 49.0699 79.0264 47.3767 78.7288 45.7351C78.4314 44.0952 77.6502 42.5819 76.4856 41.3898L76.15 41.0542C75.0033 39.9088 74.0936 38.5485 73.4729 37.0513C72.8522 35.554 72.5328 33.9491 72.5328 32.3284C72.5328 30.7076 72.8522 29.1027 73.4729 27.6054C74.0936 26.1082 75.0033 24.748 76.15 23.6025C77.2952 22.4562 78.6552 21.5468 80.1521 20.9262C81.6493 20.3056 83.2542 19.9861 84.875 19.9861C86.4958 19.9861 88.1007 20.3056 89.5979 20.9262C91.095 21.5468 92.4551 22.4564 93.6005 23.6029C93.6006 23.603 93.6003 23.6028 93.6005 23.6029L93.9365 23.939C95.1286 25.1035 96.6419 25.8848 98.2818 26.1821C99.9234 26.4797 101.617 26.2788 103.143 25.6052C103.27 25.549 103.408 25.52 103.547 25.52H103.789C105.207 24.8717 106.416 23.8387 107.279 22.5365C108.177 21.1793 108.66 19.589 108.667 17.9612V17C108.667 13.729 109.966 10.592 112.279 8.27904Z" fill="black"/>
</svg>
