<svg width="196" height="156" viewBox="0 0 196 156" fill="none" xmlns="http://www.w3.org/2000/svg">
<circle cx="60" cy="89" r="60" fill="#FF9900"/>
<path fill-rule="evenodd" clip-rule="evenodd" d="M87.8837 26.8652C88.1596 26.3868 88.7711 26.2226 89.2495 26.4985L147.75 60.2335C148.228 60.5094 148.392 61.1209 148.116 61.5993C147.84 62.0778 147.229 62.242 146.75 61.9661L88.2504 28.2311C87.772 27.9552 87.6078 27.3437 87.8837 26.8652Z" fill="black"/>
<path fill-rule="evenodd" clip-rule="evenodd" d="M111.002 13.8879C113.13 12.6599 115.543 12.0134 118 12.0134C120.457 12.0134 122.87 12.6599 124.998 13.8879C124.999 13.8883 124.999 13.8887 125 13.8891L170.5 39.8891C172.626 41.1166 174.392 42.8817 175.621 45.0072C176.849 47.1327 177.497 49.544 177.5 51.9991V104.001C177.497 106.456 176.849 108.867 175.621 110.993C174.392 113.119 172.626 114.884 170.5 116.111L170.496 116.113L125 142.111C125 142.111 124.999 142.112 124.999 142.112C122.871 143.34 120.457 143.987 118 143.987C115.543 143.987 113.129 143.34 111.001 142.112C111.001 142.112 111 142.111 111 142.111L65.5039 116.113L65.5 116.111C63.3738 114.884 61.6079 113.119 60.3792 110.993C59.1506 108.867 58.5025 106.456 58.5 104.001V51.9991C58.5025 49.544 59.1506 47.1327 60.3792 45.0072C61.6079 42.8817 63.3738 41.1166 65.5 39.8891L65.5039 39.8869L111 13.8891C111.001 13.8887 111.001 13.8883 111.002 13.8879ZM118 14.0134C115.894 14.0134 113.824 14.5679 112 15.6211L111.996 15.6233L66.5 41.6211C66.4993 41.6215 66.4986 41.6219 66.498 41.6223C64.6765 42.6744 63.1635 44.1869 62.1108 46.0081C61.0577 47.8298 60.5022 49.8964 60.5 52.0006V104C60.5022 106.104 61.0577 108.17 62.1108 109.992C63.1634 111.813 64.6763 113.326 66.4977 114.378C66.4984 114.378 66.4992 114.379 66.5 114.379L112 140.379C113.824 141.432 115.894 141.987 118 141.987C120.106 141.987 122.176 141.432 124 140.379L124.004 140.377L169.5 114.379C169.501 114.379 169.502 114.378 169.502 114.378C171.324 113.326 172.837 111.813 173.889 109.992C174.942 108.17 175.498 106.103 175.5 103.999V52.0011C175.498 49.8968 174.942 47.83 173.889 46.0081C172.837 44.1869 171.324 42.6744 169.502 41.6223C169.501 41.6219 169.501 41.6215 169.5 41.6211L124.004 15.6233L124 15.6211C122.176 14.5679 120.106 14.0134 118 14.0134Z" fill="black"/>
<path fill-rule="evenodd" clip-rule="evenodd" d="M60.3895 44.7391C60.666 44.261 61.2778 44.0976 61.7558 44.3742L118 76.9095L174.244 44.3742C174.722 44.0976 175.334 44.261 175.611 44.7391C175.887 45.2171 175.724 45.8289 175.246 46.1054L118.501 78.9304C118.191 79.1096 117.809 79.1096 117.499 78.9304L60.7544 46.1054C60.2763 45.8289 60.113 45.2171 60.3895 44.7391Z" fill="black"/>
<path fill-rule="evenodd" clip-rule="evenodd" d="M118 77C118.552 77 119 77.4477 119 78V143.52C119 144.072 118.552 144.52 118 144.52C117.448 144.52 117 144.072 117 143.52V78C117 77.4477 117.448 77 118 77Z" fill="black"/>
</svg>
